<?xml version="1.0" standalone="no"?>
<!DOCTYPE svg PUBLIC "-//W3C//DTD SVG 20010904//EN"
 "http://www.w3.org/TR/2001/REC-SVG-20010904/DTD/svg10.dtd">
<svg version="1.0" xmlns="http://www.w3.org/2000/svg"
 width="512.000000pt" height="512.000000pt" viewBox="0 0 512.000000 512.000000"
 preserveAspectRatio="xMidYMid meet">
<metadata>
Created by potrace 1.11, written by Peter Selinger 2001-2013
</metadata>
<g transform="translate(0.000000,512.000000) scale(0.100000,-0.100000)"
fill="#000000" stroke="none">
<path d="M3439 4342 c-126 -40 -201 -98 -240 -185 -34 -77 -33 -201 2 -277 56
-120 159 -181 314 -186 102 -3 168 14 235 61 163 113 176 380 26 508 -31 26
-106 63 -146 72 -39 9 -170 13 -191 7z"/>
<path d="M35 2626 l1 -1601 330 -3 331 -2 -1 684 c-1 601 1 685 14 688 8 2
299 3 645 3 l630 -1 0 -687 0 -687 330 0 331 0 -1 1603 0 1602 -330 0 -330 0
-1 -645 c-1 -355 -2 -647 -3 -650 -1 -4 -1181 -4 -1271 -1 -13 1 -15 80 -15
648 l0 648 -330 1 -330 0 0 -1600z"/>
<path d="M4425 4031 c8 -224 11 -306 20 -591 3 -113 8 -252 10 -310 5 -122 14
-378 30 -890 4 -124 9 -227 12 -230 8 -9 514 -6 520 3 6 9 8 51 18 362 3 99 7
243 10 320 3 77 7 205 10 285 9 290 16 487 20 600 5 123 17 499 19 590 l1 55
-338 1 -339 1 7 -196z"/>
<path d="M3210 3390 c-1 -79 -1 -2322 -1 -2342 l1 -28 318 0 318 0 0 1190 c0
824 -3 1190 -10 1191 -6 0 -149 1 -319 2 -267 2 -307 0 -307 -13z"/>
<path d="M4670 1645 c-170 -35 -275 -174 -263 -350 10 -161 130 -285 293 -304
184 -22 348 67 395 214 19 62 21 184 4 217 -7 13 -11 23 -9 23 2 0 -7 19 -18
41 -28 56 -102 119 -168 143 -65 25 -161 31 -234 16z"/>
</g>
</svg>
