<svg height="512pt" preserveAspectRatio="xMidYMid meet" viewBox="0 0 512 512" width="512pt" xmlns="http://www.w3.org/2000/svg"><g transform="matrix(.1 0 0 -.1 0 512)"><path d="m3439 4342c-126-40-201-98-240-185-34-77-33-201 2-277 56-120 159-181 314-186 102-3 168 14 235 61 163 113 176 380 26 508-31 26-106 63-146 72-39 9-170 13-191 7z"/><path d="m35 2626 1-1601 330-3 331-2-1 684c-1 601 1 685 14 688 8 2 299 3 645 3l630-1v-687-687h330 331l-1 1603v1602h-330-330l-1-645c-1-355-2-647-3-650-1-4-1181-4-1271-1-13 1-15 80-15 648v648l-330 1h-330z"/><path d="m4425 4031c8-224 11-306 20-591 3-113 8-252 10-310 5-122 14-378 30-890 4-124 9-227 12-230 8-9 514-6 520 3s8 51 18 362c3 99 7 243 10 320s7 205 10 285c9 290 16 487 20 600 5 123 17 499 19 590l1 55-338 1-339 1z"/><path d="m3210 3390c-1-79-1-2322-1-2342l1-28h318 318v1190c0 824-3 1190-10 1191-6 0-149 1-319 2-267 2-307 0-307-13z"/><path d="m4670 1645c-170-35-275-174-263-350 10-161 130-285 293-304 184-22 348 67 395 214 19 62 21 184 4 217-7 13-11 23-9 23s-7 19-18 41c-28 56-102 119-168 143-65 25-161 31-234 16z"/></g></svg>