<svg viewBox="0 0 4 4" xmlns="http://www.w3.org/2000/svg" fill-rule="evenodd" clip-rule="evenodd" stroke-linejoin="round" stroke-miterlimit="1.414"><path d="M1.999.051h-.001A2.008 2.008 0 0 0 0 2.049c0 .859.553 1.625 1.368 1.896.1.019.136-.043.136-.096l-.002-.34c-.557.121-.673-.267-.673-.267-.092-.231-.222-.293-.222-.293-.182-.124.014-.121.014-.121.199.014.306.206.306.206.178.304.467.217.581.166a.426.426 0 0 1 .127-.267c-.444-.05-.91-.222-.91-.988a.771.771 0 0 1 .206-.536.719.719 0 0 1 .018-.528c.074-.168.169-.055.55.205a1.91 1.91 0 0 1 1.001 0c.381-.26.548-.205.548-.205a.714.714 0 0 1 .02.528.771.771 0 0 1 .206.536c0 .768-.467.937-.912.986.071.062.135.184.135.37l-.002.548c0 .053.036.116.137.096A2.001 2.001 0 0 0 4 2.049 2.008 2.008 0 0 0 2.002.051h-.003" fill="currentColor"/></svg>