<svg viewBox="0 0 4 4" xmlns="http://www.w3.org/2000/svg" fill-rule="evenodd" clip-rule="evenodd" stroke-linejoin="round" stroke-miterlimit="1.414"><path d="M1.92.047a1.92 1.92 0 0 0-.607 3.742c.096.018.131-.041.131-.092l-.002-.327c-.535.116-.647-.257-.647-.257-.088-.222-.213-.281-.213-.281-.175-.119.013-.117.013-.117.192.014.294.198.294.198.171.293.449.209.559.16a.408.408 0 0 1 .122-.257c-.427-.048-.875-.213-.875-.949a.74.74 0 0 1 .198-.515.69.69 0 0 1 .018-.508s.162-.052.528.197a1.842 1.842 0 0 1 .962 0c.366-.249.527-.197.527-.197a.687.687 0 0 1 .019.508.74.74 0 0 1 .198.515c0 .738-.449.9-.877.947.069.06.13.177.13.356l-.002.527c0 .051.035.111.132.092A1.92 1.92 0 0 0 1.92.047" fill="currentColor"/></svg>